<svg width="1280" height="720" viewBox="0 0 1280 720" fill="none" xmlns="http://www.w3.org/2000/svg">
  <rect width="1280" height="720" fill="#070809"/>
  <rect x="50" y="50" width="1180" height="620" rx="24" fill="#09100F" stroke="#20342F"/>
  <text x="110" y="155" fill="#ECF3F0" font-size="52" font-family="Playfair Display, Georgia, serif" font-weight="700">Review and Reflection</text>
  <text x="110" y="198" fill="#A2B7AF" font-size="24" font-family="Inter, Arial, sans-serif">Convert outcomes into repeatable process improvements.</text>
  <rect x="120" y="250" width="500" height="330" rx="16" fill="#0B1614" stroke="#1F3B35"/>
  <rect x="660" y="250" width="500" height="330" rx="16" fill="#0B1614" stroke="#1F3B35"/>
  <text x="160" y="315" fill="#DFF4EC" font-size="30" font-family="Inter, Arial, sans-serif" font-weight="600">Post-Trade Notes</text>
  <line x1="160" y1="350" x2="560" y2="350" stroke="#2C4842"/>
  <line x1="160" y1="388" x2="560" y2="388" stroke="#2C4842"/>
  <line x1="160" y1="426" x2="560" y2="426" stroke="#2C4842"/>
  <line x1="160" y1="464" x2="560" y2="464" stroke="#2C4842"/>
  <line x1="160" y1="502" x2="560" y2="502" stroke="#2C4842"/>
  <text x="700" y="315" fill="#DFF4EC" font-size="30" font-family="Inter, Arial, sans-serif" font-weight="600">Pattern Signals</text>
  <circle cx="740" cy="390" r="26" fill="#13B981" fill-opacity="0.22" stroke="#1CD39A"/>
  <circle cx="820" cy="430" r="20" fill="#F3E5AB" fill-opacity="0.2" stroke="#F3E5AB"/>
  <circle cx="900" cy="360" r="34" fill="#EB5B68" fill-opacity="0.2" stroke="#EB5B68"/>
  <text x="964" y="392" fill="#B7C9C3" font-size="22" font-family="Inter, Arial, sans-serif">Execution Drift</text>
  <text x="964" y="430" fill="#B7C9C3" font-size="22" font-family="Inter, Arial, sans-serif">Risk Compliance</text>
</svg>
