<svg xmlns="http://www.w3.org/2000/svg" viewBox="0 0 800 200" width="800" height="200">
  <defs>
    <linearGradient id="hg_basic_options_strategies" x1="0" y1="0" x2="1" y2="1">
      <stop offset="0%" stop-color="#6D28D9"/>
      <stop offset="100%" stop-color="#5B21B6"/>
    </linearGradient>
  </defs>
  <rect width="800" height="200" fill="url(#hg_basic_options_strategies)"/>
  <circle cx="40" cy="30" r="2" fill="#8B5CF6" opacity="0.15"/><circle cx="120" cy="30" r="2" fill="#8B5CF6" opacity="0.15"/><circle cx="200" cy="30" r="2" fill="#8B5CF6" opacity="0.15"/><circle cx="280" cy="30" r="2" fill="#8B5CF6" opacity="0.15"/><circle cx="360" cy="30" r="2" fill="#8B5CF6" opacity="0.15"/><circle cx="440" cy="30" r="2" fill="#8B5CF6" opacity="0.15"/><circle cx="520" cy="30" r="2" fill="#8B5CF6" opacity="0.15"/><circle cx="600" cy="30" r="2" fill="#8B5CF6" opacity="0.15"/><circle cx="680" cy="30" r="2" fill="#8B5CF6" opacity="0.15"/><circle cx="760" cy="30" r="2" fill="#8B5CF6" opacity="0.15"/><circle cx="40" cy="110" r="2" fill="#8B5CF6" opacity="0.15"/><circle cx="120" cy="110" r="2" fill="#8B5CF6" opacity="0.15"/><circle cx="200" cy="110" r="2" fill="#8B5CF6" opacity="0.15"/><circle cx="280" cy="110" r="2" fill="#8B5CF6" opacity="0.15"/><circle cx="360" cy="110" r="2" fill="#8B5CF6" opacity="0.15"/><circle cx="440" cy="110" r="2" fill="#8B5CF6" opacity="0.15"/><circle cx="520" cy="110" r="2" fill="#8B5CF6" opacity="0.15"/><circle cx="600" cy="110" r="2" fill="#8B5CF6" opacity="0.15"/><circle cx="680" cy="110" r="2" fill="#8B5CF6" opacity="0.15"/><circle cx="760" cy="110" r="2" fill="#8B5CF6" opacity="0.15"/>
  <text x="40" y="80" font-family="system-ui, sans-serif" font-size="32" font-weight="700" fill="white" opacity="0.95">Basic Strategies</text>
  <text x="40" y="110" font-family="system-ui, sans-serif" font-size="14" fill="#8B5CF6" opacity="0.7">Module 3.3</text>
  <line x1="40" y1="130" x2="200" y2="130" stroke="#8B5CF6" stroke-width="2" opacity="0.4"/>
</svg>