<svg xmlns="http://www.w3.org/2000/svg" viewBox="0 0 800 200" width="800" height="200">
  <defs>
    <linearGradient id="hg_portfolio_level_thinking" x1="0" y1="0" x2="1" y2="1">
      <stop offset="0%" stop-color="#991B1B"/>
      <stop offset="100%" stop-color="#7F1D1D"/>
    </linearGradient>
  </defs>
  <rect width="800" height="200" fill="url(#hg_portfolio_level_thinking)"/>
  <circle cx="40" cy="30" r="2" fill="#EF4444" opacity="0.15"/><circle cx="120" cy="30" r="2" fill="#EF4444" opacity="0.15"/><circle cx="200" cy="30" r="2" fill="#EF4444" opacity="0.15"/><circle cx="280" cy="30" r="2" fill="#EF4444" opacity="0.15"/><circle cx="360" cy="30" r="2" fill="#EF4444" opacity="0.15"/><circle cx="440" cy="30" r="2" fill="#EF4444" opacity="0.15"/><circle cx="520" cy="30" r="2" fill="#EF4444" opacity="0.15"/><circle cx="600" cy="30" r="2" fill="#EF4444" opacity="0.15"/><circle cx="680" cy="30" r="2" fill="#EF4444" opacity="0.15"/><circle cx="760" cy="30" r="2" fill="#EF4444" opacity="0.15"/><circle cx="40" cy="110" r="2" fill="#EF4444" opacity="0.15"/><circle cx="120" cy="110" r="2" fill="#EF4444" opacity="0.15"/><circle cx="200" cy="110" r="2" fill="#EF4444" opacity="0.15"/><circle cx="280" cy="110" r="2" fill="#EF4444" opacity="0.15"/><circle cx="360" cy="110" r="2" fill="#EF4444" opacity="0.15"/><circle cx="440" cy="110" r="2" fill="#EF4444" opacity="0.15"/><circle cx="520" cy="110" r="2" fill="#EF4444" opacity="0.15"/><circle cx="600" cy="110" r="2" fill="#EF4444" opacity="0.15"/><circle cx="680" cy="110" r="2" fill="#EF4444" opacity="0.15"/><circle cx="760" cy="110" r="2" fill="#EF4444" opacity="0.15"/>
  <text x="40" y="80" font-family="system-ui, sans-serif" font-size="32" font-weight="700" fill="white" opacity="0.95">Portfolio-Level Thinking</text>
  <text x="40" y="110" font-family="system-ui, sans-serif" font-size="14" fill="#EF4444" opacity="0.7">Module 5.2</text>
  <line x1="40" y1="130" x2="200" y2="130" stroke="#EF4444" stroke-width="2" opacity="0.4"/>
</svg>